<?xml version="1.0" standalone="no"?><svg xmlns="http://www.w3.org/2000/svg" viewBox="0 0 1440 320"><path fill="#a2d9ff" fill-opacity="1" d="M0,96L12.6,101.3C25.3,107,51,117,76,122.7C101.1,128,126,128,152,133.3C176.8,139,202,149,227,170.7C252.6,192,278,224,303,202.7C328.4,181,354,107,379,101.3C404.2,96,429,160,455,197.3C480,235,505,245,531,240C555.8,235,581,213,606,176C631.6,139,657,85,682,58.7C707.4,32,733,32,758,64C783.2,96,808,160,834,160C858.9,160,884,96,909,85.3C934.7,75,960,117,985,149.3C1010.5,181,1036,203,1061,181.3C1086.3,160,1112,96,1137,101.3C1162.1,107,1187,181,1213,176C1237.9,171,1263,85,1288,58.7C1313.7,32,1339,64,1364,64C1389.5,64,1415,32,1427,16L1440,0L1440,0L1427.4,0C1414.7,0,1389,0,1364,0C1338.9,0,1314,0,1288,0C1263.2,0,1238,0,1213,0C1187.4,0,1162,0,1137,0C1111.6,0,1086,0,1061,0C1035.8,0,1011,0,985,0C960,0,935,0,909,0C884.2,0,859,0,834,0C808.4,0,783,0,758,0C732.6,0,707,0,682,0C656.8,0,632,0,606,0C581.1,0,556,0,531,0C505.3,0,480,0,455,0C429.5,0,404,0,379,0C353.7,0,328,0,303,0C277.9,0,253,0,227,0C202.1,0,177,0,152,0C126.3,0,101,0,76,0C50.5,0,25,0,13,0L0,0Z"></path></svg>