<?xml version="1.0" standalone="no"?><svg xmlns="http://www.w3.org/2000/svg" viewBox="0 0 1440 320"><path fill="#00885a" fill-opacity="1" d="M0,320L8.9,304C17.8,288,36,256,53,213.3C71.1,171,89,117,107,80C124.4,43,142,21,160,64C177.8,107,196,213,213,240C231.1,267,249,213,267,213.3C284.4,213,302,267,320,256C337.8,245,356,171,373,170.7C391.1,171,409,245,427,256C444.4,267,462,213,480,176C497.8,139,516,117,533,101.3C551.1,85,569,75,587,112C604.4,149,622,235,640,229.3C657.8,224,676,128,693,85.3C711.1,43,729,53,747,85.3C764.4,117,782,171,800,197.3C817.8,224,836,224,853,208C871.1,192,889,160,907,133.3C924.4,107,942,85,960,112C977.8,139,996,213,1013,240C1031.1,267,1049,245,1067,245.3C1084.4,245,1102,267,1120,229.3C1137.8,192,1156,96,1173,58.7C1191.1,21,1209,43,1227,64C1244.4,85,1262,107,1280,101.3C1297.8,96,1316,64,1333,80C1351.1,96,1369,160,1387,165.3C1404.4,171,1422,117,1431,90.7L1440,64L1440,320L1431.1,320C1422.2,320,1404,320,1387,320C1368.9,320,1351,320,1333,320C1315.6,320,1298,320,1280,320C1262.2,320,1244,320,1227,320C1208.9,320,1191,320,1173,320C1155.6,320,1138,320,1120,320C1102.2,320,1084,320,1067,320C1048.9,320,1031,320,1013,320C995.6,320,978,320,960,320C942.2,320,924,320,907,320C888.9,320,871,320,853,320C835.6,320,818,320,800,320C782.2,320,764,320,747,320C728.9,320,711,320,693,320C675.6,320,658,320,640,320C622.2,320,604,320,587,320C568.9,320,551,320,533,320C515.6,320,498,320,480,320C462.2,320,444,320,427,320C408.9,320,391,320,373,320C355.6,320,338,320,320,320C302.2,320,284,320,267,320C248.9,320,231,320,213,320C195.6,320,178,320,160,320C142.2,320,124,320,107,320C88.9,320,71,320,53,320C35.6,320,18,320,9,320L0,320Z"></path></svg>